PathFileType	4	(X/Y/Z)	pose_F01_0-84.trc
DataRate	CameraRate	NumFrames	NumMarkers	Units	OrigDataRate	OrigDataStartFrame	OrigNumFrames
30	30	8	21	m	30	10	84
Frame#	Time	CHip			RHip			RKnee			RAnkle			RBigToe			RSmallToe			RHeel			LHip			LKnee			LAnkle			LBigToe			LSmallToe			LHeel			Neck			Nose			RShoulder			RElbow			RWrist			LShoulder			LElbow			LWrist			
		X1	Y1	Z1	X2	Y2	Z2	X3	Y3	Z3	X4	Y4	Z4	X5	Y5	Z5	X6	Y6	Z6	X7	Y7	Z7	X8	Y8	Z8	X9	Y9	Z9	X10	Y10	Z10	X11	Y11	Z11	X12	Y12	Z12	X13	Y13	Z13	X14	Y14	Z14	X15	Y15	Z15	X16	Y16	Z16	X17	Y17	Z17	X18	Y18	Z18	X19	Y19	Z19	X20	Y20	Z20	X21	Y21	Z21	
10	0.3333333333333333	-0.2339145691005176	1.8243418073272892	-0.4864010376752911	-0.2472308137561216	1.81966797854335	-0.41708357434661913	-0.24706299914179317	1.6885553880621382	-0.3914233111662708	-0.21691975631461818	1.5801209981749207	-0.4267306568289935	-0.2781214787607984	1.5382594896248631	-0.44809902146532454	-0.268050769449567	1.5475764344700966	-0.48161296791238306	-0.20766298048647777	1.573809267835424	-0.42722875833092977	-0.22115728936921475	1.8274591954529271	-0.5532031252995949	-0.22921667684159278	1.6918424611707918	-0.5336581515115735	-0.2169159057644572	1.5725829476685211	-0.4976015889631627	-0.2296682678796318	1.5349400239442494	-0.5472266124073702	-0.2190721641406338	1.5452655777555093	-0.559188530507538	-0.2120535608054439	1.562263595739908	-0.47503746580025635	-0.22431029498085625	1.988035753966417	-0.5112544548803085	-0.23284415525225421	2.0613998545995758	-0.5583042794824671	-0.24379464263920364	1.9837568461171504	-0.4193455859592876	-0.2586204435121611	1.8981889213021776	-0.3792121737216866	-0.2483393086102912	1.9373023337588338	-0.43095668614992744	-0.19721242636697658	1.9909550610490745	-0.6041483651524127	-0.1875189482637391	1.9104647492276683	-0.608522374033207	-0.20105878444112732	1.947154610518827	-0.655977670239285
11	0.36666666666666664	-0.23519990553194825	1.8270722949299083	-0.4900197975982378	-0.2485206533566592	1.8223874817760564	-0.42057317023959767	-0.24952928358204093	1.6879648367544027	-0.3884627198153464	-0.21691975631461818	1.5801209981749207	-0.4267306568289935	-0.2781214787607984	1.5382594896248631	-0.44809902146532454	-0.268050769449567	1.5475764344700966	-0.48161296791238306	-0.20766298048647777	1.573809267835424	-0.42722875833092977	-0.22237058304280907	1.8300730684728053	-0.5568215235538545	-0.23839577352006108	1.701716108604048	-0.5508465276932953	-0.2235515335969469	1.5774959007746023	-0.5002448929955794	-0.2293896157215762	1.5366443856706933	-0.5566172366966812	-0.2222499647046999	1.5465856117826438	-0.5688611856845609	-0.22268513981489774	1.5671100938474045	-0.4815507737651487	-0.22439109695866477	1.9880790702134847	-0.5111928207475949	-0.23211410478223507	2.060987498217345	-0.5467930893604406	-0.24745823897277489	1.9863012843444892	-0.415449706732706	-0.2568389855346681	1.8979116242615446	-0.38136157480769856	-0.25050875198030925	1.9465329377283969	-0.39153026841689265	-0.200038155816124	1.9935039990915226	-0.6053464098245818	-0.18527640397899142	1.913325592502329	-0.6201717335274326	-0.20244717839954277	1.935772479764276	-0.660300330448087
12	0.4	-0.23563950097012232	1.8266768542447875	-0.49351846764089097	-0.24826408223437105	1.8219893784408723	-0.4208094602018962	-0.2503758572921619	1.6887145231462755	-0.3921955503977744	-0.21691975631461818	1.5801209981749207	-0.4267306568289935	-0.2781214787607984	1.5382594896248631	-0.44809902146532454	-0.268050769449567	1.5475764344700966	-0.48161296791238306	-0.20766298048647777	1.573809267835424	-0.42722875833092977	-0.22285825999029657	1.831205572101871	-0.5604064216441542	-0.23783664884267045	1.7032317977120295	-0.5607276019197667	-0.22630279207515813	1.5792996092764606	-0.5326121744256471	-0.23660624151226836	1.539717198655769	-0.5665636278283778	-0.2267128758703684	1.5495653495402497	-0.5903877776576217	-0.22585231403445913	1.5703613232031914	-0.5142982251979292	-0.22639163775629464	1.9880291498957265	-0.5091454190753892	-0.2381681198151064	2.062298892033008	-0.5405593942742706	-0.2475606552479384	1.983769103352181	-0.4149482032981214	-0.2595542847847712	1.8972163815400376	-0.37375637337644535	-0.267093219764508	1.9544423056562779	-0.3871779779452017	-0.20296116973043724	1.9947349418023408	-0.606400086890757	-0.184527404365703	1.917950648956065	-0.6383720888160238	-0.20641399565597168	1.9322668655677324	-0.6724144753371428
13	0.43333333333333335	-0.23660580862573843	1.8270671065916946	-0.5055384515986193	-0.2512523436325203	1.821468956635269	-0.43074132556954703	-0.24918596839790175	1.6888060539733032	-0.39824098990825324	-0.21691975631461818	1.5801209981749207	-0.4267306568289935	-0.2781214787607984	1.5382594896248631	-0.44809902146532454	-0.268050769449567	1.5475764344700966	-0.48161296791238306	-0.20766298048647777	1.573809267835424	-0.42722875833092977	-0.2245000970256718	1.830481461644347	-0.5755927948641912	-0.2398554166305703	1.6994830036483815	-0.5883249094808604	-0.2225750983714086	1.5770824309133447	-0.5846903051497736	-0.23796081773290728	1.5436962103734202	-0.6172928099104156	-0.22469027773083217	1.5513474892765378	-0.639767763119846	-0.22067630855248824	1.5681687412169607	-0.5681061565016811	-0.22726544324842957	1.9894789204341126	-0.5207807327675958	-0.24024891208014343	2.0623784655674604	-0.5383834680570951	-0.2497428686347866	1.9827365464564384	-0.42144235761983495	-0.2565083485008885	1.8973139782171868	-0.3725835106100557	-0.27419611624370477	1.9492919546715248	-0.38328662862298457	-0.20454378224725409	1.996603707071657	-0.6214980419415963	-0.17826339944776523	1.922317981422882	-0.6577120624306882	-0.20061514605323016	1.9336682028461865	-0.7004277272013258
14	0.4666666666666667	-0.23682269723565577	1.8276930190199898	-0.5146193655397959	-0.25078126541011403	1.8210887885021259	-0.4451438768249289	-0.2469015735163565	1.6862244738779792	-0.40073665354822186	-0.21691975631461818	1.5801209981749207	-0.4267306568289935	-0.2781214787607984	1.5382594896248631	-0.44809902146532454	-0.268050769449567	1.5475764344700966	-0.48161296791238306	-0.20766298048647777	1.573809267835424	-0.42722875833092977	-0.22033686354229337	1.8329783393608023	-0.5893273269465534	-0.22993556339083385	1.7017629593892878	-0.6076897814862946	-0.21498403838113772	1.5771537642407547	-0.6391776322886282	-0.22399205296518998	1.541692705588345	-0.6733710117439712	-0.21134118246845218	1.5501665126621749	-0.6993227373531101	-0.21406255690268236	1.565562386616837	-0.6263663778904229	-0.22799523383083561	1.9910126363554368	-0.5327181908421434	-0.24413801344424016	2.0649556164422993	-0.542887702552774	-0.24700580165059585	1.9829766076910522	-0.43731582781050476	-0.2547696325082817	1.899079228285567	-0.3836060146455903	-0.2789188521799197	1.947869892259193	-0.4046447864358191	-0.20405950527142339	1.9967390576644808	-0.629807371197435	-0.17814504934755576	1.9229352404599116	-0.678269216984449	-0.20259700792134683	1.944888460107976	-0.7108853241614048
15	0.5	-0.2353396648434041	1.827585305154365	-0.537655434385432	-0.24874070503117834	1.8233114759201439	-0.4652425722865891	-0.2500189183999233	1.6890002358664193	-0.4159625553205232	-0.21691975631461818	1.5801209981749207	-0.4267306568289935	-0.2781214787607984	1.5382594896248631	-0.44809902146532454	-0.268050769449567	1.5475764344700966	-0.48161296791238306	-0.20766298048647777	1.573809267835424	-0.42722875833092977	-0.2194598052905126	1.8343113121343413	-0.6070113721497844	-0.22102061514606028	1.6995966991717026	-0.6462710940401952	-0.1973649702779325	1.56890656139398	-0.7020030211451125	-0.20112658404725892	1.5347152758390021	-0.728425961258488	-0.1917147905913315	1.5449476499305717	-0.7591031736491792	-0.19848604158979144	1.5601593570500467	-0.6915586514906009	-0.22765220158617264	1.9903153242657774	-0.5494546066681899	-0.24508257458069752	2.0629131900087754	-0.5540735992308466	-0.24890259905236886	1.9832309676139857	-0.45192282575529774	-0.25519989439811774	1.9008367526305392	-0.40185010553899314	-0.2808472349883472	1.944708780590897	-0.4500134828420838	-0.20307955919083792	1.9989891849241108	-0.6554674566581323	-0.17519640972757278	1.9248599723964006	-0.7095474254742618	-0.19557470433087512	1.94871311627101	-0.72741988289309
16	0.5333333333333333	-0.23201282382166616	1.8327148490629253	-0.5635888634016719	-0.24800935625233878	1.8277895559597912	-0.4890981574522251	-0.24825228785912393	1.6887266955849658	-0.4361049924485548	-0.21691975631461818	1.5801209981749207	-0.4267306568289935	-0.2781214787607984	1.5382594896248631	-0.44809902146532454	-0.268050769449567	1.5475764344700966	-0.48161296791238306	-0.20766298048647777	1.573809267835424	-0.42722875833092977	-0.2177600801861362	1.8353961589461396	-0.6302720702723663	-0.2115760740285907	1.7017077375243366	-0.6730641795481982	-0.17981582540967558	1.5728357709629786	-0.7448348656910361	-0.1889744551482149	1.532975780148241	-0.7439085145722074	-0.28416099726064004	1.4810888857073503	-1.192634669681962	-0.17517490927436927	1.564958172189089	-0.7445027681514427	-0.22418150854980412	1.989604316190156	-0.5738623786110589	-0.24469635827758784	2.0632075681802005	-0.5702564583748443	-0.24614351792328057	1.9826170254161763	-0.47634113610846174	-0.24809303047831066	1.8982518032500129	-0.43634863568671284	-0.2681646436470734	1.937228032924643	-0.4926636406480619	-0.2020958790136761	1.9968291108136371	-0.6719563866241357	-0.17296525476769245	1.9206255721447967	-0.7432625178789204	-0.19518924785045574	1.9540764450271	-0.7387691541709887
17	0.5666666666666667	-0.23039388182131984	1.8255512995699306	-0.5945183078414482	-0.24590636704190186	1.8203288587648774	-0.5254495583049201	-0.24741555660777653	1.691012294765317	-0.4600268939353432	-0.21691975631461818	1.5801209981749207	-0.4267306568289935	-0.2781214787607984	1.5382594896248631	-0.44809902146532454	-0.268050769449567	1.5475764344700966	-0.48161296791238306	-0.20766298048647777	1.573809267835424	-0.42722875833092977	-0.21224339728226668	1.8289341011338829	-0.6685186442079801	-0.19614869004612573	1.6973978918501673	-0.7091845050606409	-0.15803484852680733	1.5690553036905552	-0.7742118235126352	-0.28637747044066236	1.4731452697004828	-1.1744527643700255	-0.26995230551755217	1.4773989938654741	-1.2060895096321882	-0.15054698091678095	1.5591972237342027	-0.7761687734152197	-0.2234588390082286	1.9856114807182303	-0.6077683609893515	-0.24118689666438778	2.0598040687533583	-0.5930259037795906	-0.2456058741570723	1.9750994780157167	-0.5070006948817226	-0.24858279487596432	1.8945506552673912	-0.4622487777301504	-0.2651781038027576	1.9312712505007514	-0.5263063641269297	-0.1952034994247226	1.9954134228741278	-0.7069799011394887	-1.252093972237734	1.8354116304260346	0.3156392037163095	-0.2023779943287297	1.9603601991877004	-0.7559837733411274
